<?xml version="1.0" encoding="utf-8"?>
<!-- Generator: Adobe Illustrator 19.0.0, SVG Export Plug-In . SVG Version: 6.00 Build 0)  -->
<svg version="1.1" id="Flag" xmlns="http://www.w3.org/2000/svg" xmlns:xlink="http://www.w3.org/1999/xlink" x="0px" y="0px"
	 viewBox="0 0 1990 1050" style="enable-background:new 0 0 1990 1050;" xml:space="preserve">
<style type="text/css">
	.st0{fill:#FFFFFF;}
	.st1{fill:#CE1124;}
	.st2{fill:#00247D;}
</style>
<g>
	<g>
		<rect y="0.1" class="st0" width="1989.5" height="1048.2"/>
		<polygon class="st1" points="1989.6,419.5 1113.6,419.5 1113.6,0.2 874.5,0.2 874.5,419.5 0.8,419.5 0.8,629.1 874.5,629.1 
			874.5,1048.3 1113.6,1048.3 1113.6,629.1 1989.6,629.1 		"/>
	</g>
	<g>
		<polygon class="st2" points="0,122.2 0,350.4 434,350.4 		"/>
		<polygon class="st2" points="239.4,0 233.1,0.3 795.7,297.8 795.7,0 		"/>
		<polygon class="st1" points="667.8,348.9 0,0.1 0,82.3 508.7,348.9 		"/>
		<polygon class="st1" points="1322.2,699.4 1990,1048.2 1990,966 1481.3,699.4 		"/>
	</g>
	<g>
		<polygon class="st2" points="0,927.9 0,699.7 434,699.7 		"/>
		<polygon class="st2" points="239.4,1050 233.1,1049.7 795.7,752.2 795.7,1050 		"/>
		<polygon class="st1" points="664.4,699.3 0.5,1048 155.7,1048.2 796.4,713.5 796.4,699.3 		"/>
	</g>
	<g>
		<polygon class="st2" points="1990,122.1 1990,350.3 1556.1,350.3 		"/>
		<polygon class="st2" points="1750.6,0 1757,0.3 1194.3,297.8 1194.3,0 		"/>
		<polygon class="st1" points="1989.4,0.5 1840,0.5 1194.9,337.5 1194.9,349.3 1331.4,349.3 		"/>
	</g>
	<g>
		<polygon class="st2" points="1990,927.8 1990,699.6 1556.1,699.6 		"/>
		<polygon class="st2" points="1750.6,1049.9 1757,1049.6 1194.3,752.1 1194.3,1049.9 		"/>
	</g>
</g>
</svg>
